<svg width="199" height="37" viewBox="0 0 199 37" fill="none" xmlns="http://www.w3.org/2000/svg">
<path d="M10.4062 25.5352C10.4062 25.2305 10.3594 24.957 10.2656 24.7148C10.1797 24.4648 10.0156 24.2383 9.77344 24.0352C9.53125 23.8242 9.19141 23.6172 8.75391 23.4141C8.31641 23.2109 7.75 23 7.05469 22.7812C6.28125 22.5312 5.54688 22.25 4.85156 21.9375C4.16406 21.625 3.55469 21.2617 3.02344 20.8477C2.5 20.4258 2.08594 19.9375 1.78125 19.3828C1.48438 18.8281 1.33594 18.1836 1.33594 17.4492C1.33594 16.7383 1.49219 16.0938 1.80469 15.5156C2.11719 14.9297 2.55469 14.4297 3.11719 14.0156C3.67969 13.5938 4.34375 13.2695 5.10938 13.043C5.88281 12.8164 6.73047 12.7031 7.65234 12.7031C8.91016 12.7031 10.0078 12.9297 10.9453 13.3828C11.8828 13.8359 12.6094 14.457 13.125 15.2461C13.6484 16.0352 13.9102 16.9375 13.9102 17.9531H10.418C10.418 17.4531 10.3125 17.0156 10.1016 16.6406C9.89844 16.2578 9.58594 15.957 9.16406 15.7383C8.75 15.5195 8.22656 15.4102 7.59375 15.4102C6.98438 15.4102 6.47656 15.5039 6.07031 15.6914C5.66406 15.8711 5.35938 16.1172 5.15625 16.4297C4.95312 16.7344 4.85156 17.0781 4.85156 17.4609C4.85156 17.75 4.92188 18.0117 5.0625 18.2461C5.21094 18.4805 5.42969 18.6992 5.71875 18.9023C6.00781 19.1055 6.36328 19.2969 6.78516 19.4766C7.20703 19.6562 7.69531 19.832 8.25 20.0039C9.17969 20.2852 9.99609 20.6016 10.6992 20.9531C11.4102 21.3047 12.0039 21.6992 12.4805 22.1367C12.957 22.5742 13.3164 23.0703 13.5586 23.625C13.8008 24.1797 13.9219 24.8086 13.9219 25.5117C13.9219 26.2539 13.7773 26.918 13.4883 27.5039C13.1992 28.0898 12.7812 28.5859 12.2344 28.9922C11.6875 29.3984 11.0352 29.707 10.2773 29.918C9.51953 30.1289 8.67188 30.2344 7.73438 30.2344C6.89062 30.2344 6.05859 30.125 5.23828 29.9062C4.41797 29.6797 3.67188 29.3398 3 28.8867C2.33594 28.4336 1.80469 27.8555 1.40625 27.1523C1.00781 26.4492 0.808594 25.6172 0.808594 24.6562H4.33594C4.33594 25.1875 4.41797 25.6367 4.58203 26.0039C4.74609 26.3711 4.97656 26.668 5.27344 26.8945C5.57812 27.1211 5.9375 27.2852 6.35156 27.3867C6.77344 27.4883 7.23438 27.5391 7.73438 27.5391C8.34375 27.5391 8.84375 27.4531 9.23438 27.2812C9.63281 27.1094 9.92578 26.8711 10.1133 26.5664C10.3086 26.2617 10.4062 25.918 10.4062 25.5352ZM19.4766 19.7578V34.875H16.1016V17.3203H19.2305L19.4766 19.7578ZM27.5039 23.5195V23.7656C27.5039 24.6875 27.3945 25.543 27.1758 26.332C26.9648 27.1211 26.6523 27.8086 26.2383 28.3945C25.8242 28.9727 25.3086 29.4258 24.6914 29.7539C24.082 30.0742 23.3789 30.2344 22.582 30.2344C21.8086 30.2344 21.1367 30.0781 20.5664 29.7656C19.9961 29.4531 19.5156 29.0156 19.125 28.4531C18.7422 27.8828 18.4336 27.2227 18.1992 26.4727C17.9648 25.7227 17.7852 24.918 17.6602 24.0586V23.4141C17.7852 22.4922 17.9648 21.6484 18.1992 20.8828C18.4336 20.1094 18.7422 19.4414 19.125 18.8789C19.5156 18.3086 19.9922 17.8672 20.5547 17.5547C21.125 17.2422 21.793 17.0859 22.5586 17.0859C23.3633 17.0859 24.0703 17.2383 24.6797 17.543C25.2969 17.8477 25.8125 18.2852 26.2266 18.8555C26.6484 19.4258 26.9648 20.1055 27.1758 20.8945C27.3945 21.6836 27.5039 22.5586 27.5039 23.5195ZM24.1172 23.7656V23.5195C24.1172 22.9805 24.0703 22.4844 23.9766 22.0312C23.8906 21.5703 23.75 21.168 23.5547 20.8242C23.3672 20.4805 23.1172 20.2148 22.8047 20.0273C22.5 19.832 22.1289 19.7344 21.6914 19.7344C21.2305 19.7344 20.8359 19.8086 20.5078 19.957C20.1875 20.1055 19.9258 20.3203 19.7227 20.6016C19.5195 20.8828 19.3672 21.2188 19.2656 21.6094C19.1641 22 19.1016 22.4414 19.0781 22.9336V24.5625C19.1172 25.1406 19.2266 25.6602 19.4062 26.1211C19.5859 26.5742 19.8633 26.9336 20.2383 27.1992C20.6133 27.4648 21.1055 27.5977 21.7148 27.5977C22.1602 27.5977 22.5352 27.5 22.8398 27.3047C23.1445 27.1016 23.3906 26.8242 23.5781 26.4727C23.7734 26.1211 23.9102 25.7148 23.9883 25.2539C24.0742 24.793 24.1172 24.2969 24.1172 23.7656ZM36.4453 27.1406V21.4922C36.4453 21.0859 36.3789 20.7383 36.2461 20.4492C36.1133 20.1523 35.9062 19.9219 35.625 19.7578C35.3516 19.5938 34.9961 19.5117 34.5586 19.5117C34.1836 19.5117 33.8594 19.5781 33.5859 19.7109C33.3125 19.8359 33.1016 20.0195 32.9531 20.2617C32.8047 20.4961 32.7305 20.7734 32.7305 21.0938H29.3555C29.3555 20.5547 29.4805 20.043 29.7305 19.5586C29.9805 19.0742 30.3438 18.6484 30.8203 18.2812C31.2969 17.9062 31.8633 17.6133 32.5195 17.4023C33.1836 17.1914 33.9258 17.0859 34.7461 17.0859C35.7305 17.0859 36.6055 17.25 37.3711 17.5781C38.1367 17.9062 38.7383 18.3984 39.1758 19.0547C39.6211 19.7109 39.8438 20.5312 39.8438 21.5156V26.9414C39.8438 27.6367 39.8867 28.207 39.9727 28.6523C40.0586 29.0898 40.1836 29.4727 40.3477 29.8008V30H36.9375C36.7734 29.6562 36.6484 29.2266 36.5625 28.7109C36.4844 28.1875 36.4453 27.6641 36.4453 27.1406ZM36.8906 22.2773L36.9141 24.1875H35.0273C34.582 24.1875 34.1953 24.2383 33.8672 24.3398C33.5391 24.4414 33.2695 24.5859 33.0586 24.7734C32.8477 24.9531 32.6914 25.1641 32.5898 25.4062C32.4961 25.6484 32.4492 25.9141 32.4492 26.2031C32.4492 26.4922 32.5156 26.7539 32.6484 26.9883C32.7812 27.2148 32.9727 27.3945 33.2227 27.5273C33.4727 27.6523 33.7656 27.7148 34.1016 27.7148C34.6094 27.7148 35.0508 27.6133 35.4258 27.4102C35.8008 27.207 36.0898 26.957 36.293 26.6602C36.5039 26.3633 36.6133 26.082 36.6211 25.8164L37.5117 27.2461C37.3867 27.5664 37.2148 27.8984 36.9961 28.2422C36.7852 28.5859 36.5156 28.9102 36.1875 29.2148C35.8594 29.5117 35.4648 29.7578 35.0039 29.9531C34.543 30.1406 33.9961 30.2344 33.3633 30.2344C32.5586 30.2344 31.8281 30.0742 31.1719 29.7539C30.5234 29.4258 30.0078 28.9766 29.625 28.4062C29.25 27.8281 29.0625 27.1719 29.0625 26.4375C29.0625 25.7734 29.1875 25.1836 29.4375 24.668C29.6875 24.1523 30.0547 23.7188 30.5391 23.3672C31.0312 23.0078 31.6445 22.7383 32.3789 22.5586C33.1133 22.3711 33.9648 22.2773 34.9336 22.2773H36.8906ZM47.6836 27.5977C48.0977 27.5977 48.4648 27.5195 48.7852 27.3633C49.1055 27.1992 49.3555 26.9727 49.5352 26.6836C49.7227 26.3867 49.8203 26.0391 49.8281 25.6406H53.0039C52.9961 26.5312 52.7578 27.3242 52.2891 28.0195C51.8203 28.707 51.1914 29.25 50.4023 29.6484C49.6133 30.0391 48.7305 30.2344 47.7539 30.2344C46.7695 30.2344 45.9102 30.0703 45.1758 29.7422C44.4492 29.4141 43.8438 28.9609 43.3594 28.3828C42.875 27.7969 42.5117 27.1172 42.2695 26.3438C42.0273 25.5625 41.9062 24.7266 41.9062 23.8359V23.4961C41.9062 22.5977 42.0273 21.7617 42.2695 20.9883C42.5117 20.207 42.875 19.5273 43.3594 18.9492C43.8438 18.3633 44.4492 17.9062 45.1758 17.5781C45.9023 17.25 46.7539 17.0859 47.7305 17.0859C48.7695 17.0859 49.6797 17.2852 50.4609 17.6836C51.25 18.082 51.8672 18.6523 52.3125 19.3945C52.7656 20.1289 52.9961 21 53.0039 22.0078H49.8281C49.8203 21.5859 49.7305 21.2031 49.5586 20.8594C49.3945 20.5156 49.1523 20.2422 48.832 20.0391C48.5195 19.8281 48.1328 19.7227 47.6719 19.7227C47.1797 19.7227 46.7773 19.8281 46.4648 20.0391C46.1523 20.2422 45.9102 20.5234 45.7383 20.8828C45.5664 21.2344 45.4453 21.6367 45.375 22.0898C45.3125 22.5352 45.2812 23.0039 45.2812 23.4961V23.8359C45.2812 24.3281 45.3125 24.8008 45.375 25.2539C45.4375 25.707 45.5547 26.1094 45.7266 26.4609C45.9062 26.8125 46.1523 27.0898 46.4648 27.293C46.7773 27.4961 47.1836 27.5977 47.6836 27.5977ZM60.7969 30.2344C59.8125 30.2344 58.9297 30.0781 58.1484 29.7656C57.3672 29.4453 56.7031 29.0039 56.1562 28.4414C55.6172 27.8789 55.2031 27.2266 54.9141 26.4844C54.625 25.7344 54.4805 24.9375 54.4805 24.0938V23.625C54.4805 22.6641 54.6172 21.7852 54.8906 20.9883C55.1641 20.1914 55.5547 19.5 56.0625 18.9141C56.5781 18.3281 57.2031 17.8789 57.9375 17.5664C58.6719 17.2461 59.5 17.0859 60.4219 17.0859C61.3203 17.0859 62.1172 17.2344 62.8125 17.5312C63.5078 17.8281 64.0898 18.25 64.5586 18.7969C65.0352 19.3438 65.3945 20 65.6367 20.7656C65.8789 21.5234 66 22.3672 66 23.2969V24.7031H55.9219V22.4531H62.6836V22.1953C62.6836 21.7266 62.5977 21.3086 62.4258 20.9414C62.2617 20.5664 62.0117 20.2695 61.6758 20.0508C61.3398 19.832 60.9102 19.7227 60.3867 19.7227C59.9414 19.7227 59.5586 19.8203 59.2383 20.0156C58.918 20.2109 58.6562 20.4844 58.4531 20.8359C58.2578 21.1875 58.1094 21.6016 58.0078 22.0781C57.9141 22.5469 57.8672 23.0625 57.8672 23.625V24.0938C57.8672 24.6016 57.9375 25.0703 58.0781 25.5C58.2266 25.9297 58.4336 26.3008 58.6992 26.6133C58.9727 26.9258 59.3008 27.168 59.6836 27.3398C60.0742 27.5117 60.5156 27.5977 61.0078 27.5977C61.6172 27.5977 62.1836 27.4805 62.707 27.2461C63.2383 27.0039 63.6953 26.6406 64.0781 26.1562L65.7188 27.9375C65.4531 28.3203 65.0898 28.6875 64.6289 29.0391C64.1758 29.3906 63.6289 29.6797 62.9883 29.9062C62.3477 30.125 61.6172 30.2344 60.7969 30.2344ZM81.1055 12.9375V30H77.6016V12.9375H81.1055ZM86.3555 12.9375V15.6914H72.4336V12.9375H86.3555ZM90.7031 20.0859V30H87.3281V17.3203H90.5039L90.7031 20.0859ZM94.5234 17.2383L94.4648 20.3672C94.3008 20.3438 94.1016 20.3242 93.8672 20.3086C93.6406 20.2852 93.4336 20.2734 93.2461 20.2734C92.7695 20.2734 92.3555 20.3359 92.0039 20.4609C91.6602 20.5781 91.3711 20.7539 91.1367 20.9883C90.9102 21.2227 90.7383 21.5078 90.6211 21.8438C90.5117 22.1797 90.4492 22.5625 90.4336 22.9922L89.7539 22.7812C89.7539 21.9609 89.8359 21.207 90 20.5195C90.1641 19.8242 90.4023 19.2188 90.7148 18.7031C91.0352 18.1875 91.4258 17.7891 91.8867 17.5078C92.3477 17.2266 92.875 17.0859 93.4688 17.0859C93.6562 17.0859 93.8477 17.1016 94.043 17.1328C94.2383 17.1562 94.3984 17.1914 94.5234 17.2383ZM102.562 27.1406V21.4922C102.562 21.0859 102.496 20.7383 102.363 20.4492C102.23 20.1523 102.023 19.9219 101.742 19.7578C101.469 19.5938 101.113 19.5117 100.676 19.5117C100.301 19.5117 99.9766 19.5781 99.7031 19.7109C99.4297 19.8359 99.2188 20.0195 99.0703 20.2617C98.9219 20.4961 98.8477 20.7734 98.8477 21.0938H95.4727C95.4727 20.5547 95.5977 20.043 95.8477 19.5586C96.0977 19.0742 96.4609 18.6484 96.9375 18.2812C97.4141 17.9062 97.9805 17.6133 98.6367 17.4023C99.3008 17.1914 100.043 17.0859 100.863 17.0859C101.848 17.0859 102.723 17.25 103.488 17.5781C104.254 17.9062 104.855 18.3984 105.293 19.0547C105.738 19.7109 105.961 20.5312 105.961 21.5156V26.9414C105.961 27.6367 106.004 28.207 106.09 28.6523C106.176 29.0898 106.301 29.4727 106.465 29.8008V30H103.055C102.891 29.6562 102.766 29.2266 102.68 28.7109C102.602 28.1875 102.562 27.6641 102.562 27.1406ZM103.008 22.2773L103.031 24.1875H101.145C100.699 24.1875 100.312 24.2383 99.9844 24.3398C99.6562 24.4414 99.3867 24.5859 99.1758 24.7734C98.9648 24.9531 98.8086 25.1641 98.707 25.4062C98.6133 25.6484 98.5664 25.9141 98.5664 26.2031C98.5664 26.4922 98.6328 26.7539 98.7656 26.9883C98.8984 27.2148 99.0898 27.3945 99.3398 27.5273C99.5898 27.6523 99.8828 27.7148 100.219 27.7148C100.727 27.7148 101.168 27.6133 101.543 27.4102C101.918 27.207 102.207 26.957 102.41 26.6602C102.621 26.3633 102.73 26.082 102.738 25.8164L103.629 27.2461C103.504 27.5664 103.332 27.8984 103.113 28.2422C102.902 28.5859 102.633 28.9102 102.305 29.2148C101.977 29.5117 101.582 29.7578 101.121 29.9531C100.66 30.1406 100.113 30.2344 99.4805 30.2344C98.6758 30.2344 97.9453 30.0742 97.2891 29.7539C96.6406 29.4258 96.125 28.9766 95.7422 28.4062C95.3672 27.8281 95.1797 27.1719 95.1797 26.4375C95.1797 25.7734 95.3047 25.1836 95.5547 24.668C95.8047 24.1523 96.1719 23.7188 96.6562 23.3672C97.1484 23.0078 97.7617 22.7383 98.4961 22.5586C99.2305 22.3711 100.082 22.2773 101.051 22.2773H103.008ZM116.051 27.2344V12H119.449V30H116.391L116.051 27.2344ZM108.035 23.8125V23.5664C108.035 22.5977 108.145 21.7188 108.363 20.9297C108.582 20.1328 108.902 19.4492 109.324 18.8789C109.746 18.3086 110.266 17.8672 110.883 17.5547C111.5 17.2422 112.203 17.0859 112.992 17.0859C113.734 17.0859 114.383 17.2422 114.938 17.5547C115.5 17.8672 115.977 18.3125 116.367 18.8906C116.766 19.4609 117.086 20.1367 117.328 20.918C117.57 21.6914 117.746 22.5391 117.855 23.4609V24C117.746 24.8828 117.57 25.7031 117.328 26.4609C117.086 27.2188 116.766 27.8828 116.367 28.4531C115.977 29.0156 115.5 29.4531 114.938 29.7656C114.375 30.0781 113.719 30.2344 112.969 30.2344C112.18 30.2344 111.477 30.0742 110.859 29.7539C110.25 29.4336 109.734 28.9844 109.312 28.4062C108.898 27.8281 108.582 27.1484 108.363 26.3672C108.145 25.5859 108.035 24.7344 108.035 23.8125ZM111.41 23.5664V23.8125C111.41 24.3359 111.449 24.8242 111.527 25.2773C111.613 25.7305 111.75 26.1328 111.938 26.4844C112.133 26.8281 112.383 27.0977 112.688 27.293C113 27.4805 113.379 27.5742 113.824 27.5742C114.402 27.5742 114.879 27.4453 115.254 27.1875C115.629 26.9219 115.914 26.5586 116.109 26.0977C116.312 25.6367 116.43 25.1055 116.461 24.5039V22.9688C116.438 22.4766 116.367 22.0352 116.25 21.6445C116.141 21.2461 115.977 20.9062 115.758 20.625C115.547 20.3438 115.281 20.125 114.961 19.9688C114.648 19.8125 114.277 19.7344 113.848 19.7344C113.41 19.7344 113.035 19.8359 112.723 20.0391C112.41 20.2344 112.156 20.5039 111.961 20.8477C111.773 21.1914 111.633 21.5977 111.539 22.0664C111.453 22.5273 111.41 23.0273 111.41 23.5664ZM127.922 30.2344C126.938 30.2344 126.055 30.0781 125.273 29.7656C124.492 29.4453 123.828 29.0039 123.281 28.4414C122.742 27.8789 122.328 27.2266 122.039 26.4844C121.75 25.7344 121.605 24.9375 121.605 24.0938V23.625C121.605 22.6641 121.742 21.7852 122.016 20.9883C122.289 20.1914 122.68 19.5 123.188 18.9141C123.703 18.3281 124.328 17.8789 125.062 17.5664C125.797 17.2461 126.625 17.0859 127.547 17.0859C128.445 17.0859 129.242 17.2344 129.938 17.5312C130.633 17.8281 131.215 18.25 131.684 18.7969C132.16 19.3438 132.52 20 132.762 20.7656C133.004 21.5234 133.125 22.3672 133.125 23.2969V24.7031H123.047V22.4531H129.809V22.1953C129.809 21.7266 129.723 21.3086 129.551 20.9414C129.387 20.5664 129.137 20.2695 128.801 20.0508C128.465 19.832 128.035 19.7227 127.512 19.7227C127.066 19.7227 126.684 19.8203 126.363 20.0156C126.043 20.2109 125.781 20.4844 125.578 20.8359C125.383 21.1875 125.234 21.6016 125.133 22.0781C125.039 22.5469 124.992 23.0625 124.992 23.625V24.0938C124.992 24.6016 125.062 25.0703 125.203 25.5C125.352 25.9297 125.559 26.3008 125.824 26.6133C126.098 26.9258 126.426 27.168 126.809 27.3398C127.199 27.5117 127.641 27.5977 128.133 27.5977C128.742 27.5977 129.309 27.4805 129.832 27.2461C130.363 27.0039 130.82 26.6406 131.203 26.1562L132.844 27.9375C132.578 28.3203 132.215 28.6875 131.754 29.0391C131.301 29.3906 130.754 29.6797 130.113 29.9062C129.473 30.125 128.742 30.2344 127.922 30.2344ZM138.422 20.0859V30H135.047V17.3203H138.223L138.422 20.0859ZM142.242 17.2383L142.184 20.3672C142.02 20.3438 141.82 20.3242 141.586 20.3086C141.359 20.2852 141.152 20.2734 140.965 20.2734C140.488 20.2734 140.074 20.3359 139.723 20.4609C139.379 20.5781 139.09 20.7539 138.855 20.9883C138.629 21.2227 138.457 21.5078 138.34 21.8438C138.23 22.1797 138.168 22.5625 138.152 22.9922L137.473 22.7812C137.473 21.9609 137.555 21.207 137.719 20.5195C137.883 19.8242 138.121 19.2188 138.434 18.7031C138.754 18.1875 139.145 17.7891 139.605 17.5078C140.066 17.2266 140.594 17.0859 141.188 17.0859C141.375 17.0859 141.566 17.1016 141.762 17.1328C141.957 17.1562 142.117 17.1914 142.242 17.2383ZM150.691 26.4961C150.691 26.2539 150.621 26.0352 150.48 25.8398C150.34 25.6445 150.078 25.4648 149.695 25.3008C149.32 25.1289 148.777 24.9727 148.066 24.832C147.426 24.6914 146.828 24.5156 146.273 24.3047C145.727 24.0859 145.25 23.8242 144.844 23.5195C144.445 23.2148 144.133 22.8555 143.906 22.4414C143.68 22.0195 143.566 21.5391 143.566 21C143.566 20.4688 143.68 19.9688 143.906 19.5C144.141 19.0312 144.473 18.6172 144.902 18.2578C145.34 17.8906 145.871 17.6055 146.496 17.4023C147.129 17.1914 147.84 17.0859 148.629 17.0859C149.73 17.0859 150.676 17.2617 151.465 17.6133C152.262 17.9648 152.871 18.4492 153.293 19.0664C153.723 19.6758 153.938 20.3711 153.938 21.1523H150.562C150.562 20.8242 150.492 20.5312 150.352 20.2734C150.219 20.0078 150.008 19.8008 149.719 19.6523C149.438 19.4961 149.07 19.418 148.617 19.418C148.242 19.418 147.918 19.4844 147.645 19.6172C147.371 19.7422 147.16 19.9141 147.012 20.1328C146.871 20.3438 146.801 20.5781 146.801 20.8359C146.801 21.0312 146.84 21.207 146.918 21.3633C147.004 21.5117 147.141 21.6484 147.328 21.7734C147.516 21.8984 147.758 22.0156 148.055 22.125C148.359 22.2266 148.734 22.3203 149.18 22.4062C150.094 22.5938 150.91 22.8398 151.629 23.1445C152.348 23.4414 152.918 23.8477 153.34 24.3633C153.762 24.8711 153.973 25.5391 153.973 26.3672C153.973 26.9297 153.848 27.4453 153.598 27.9141C153.348 28.3828 152.988 28.793 152.52 29.1445C152.051 29.4883 151.488 29.7578 150.832 29.9531C150.184 30.1406 149.453 30.2344 148.641 30.2344C147.461 30.2344 146.461 30.0234 145.641 29.6016C144.828 29.1797 144.211 28.6445 143.789 27.9961C143.375 27.3398 143.168 26.668 143.168 25.9805H146.367C146.383 26.4414 146.5 26.8125 146.719 27.0938C146.945 27.375 147.23 27.5781 147.574 27.7031C147.926 27.8281 148.305 27.8906 148.711 27.8906C149.148 27.8906 149.512 27.832 149.801 27.7148C150.09 27.5898 150.309 27.4258 150.457 27.2227C150.613 27.0117 150.691 26.7695 150.691 26.4961Z" fill="white"/>
<path fill-rule="evenodd" clip-rule="evenodd" d="M199 31.6012C197.163 32.1967 195.203 32.5185 193.167 32.5185C182.73 32.5185 174.269 24.0574 174.269 13.62C174.269 8.26947 176.492 3.43824 180.066 0C172.483 2.45804 167 9.57933 167 17.9812C167 28.4185 175.461 36.8797 185.898 36.8797C190.985 36.8797 195.603 34.87 199 31.6012Z" fill="white"/>
</svg>
